<?xml version="1.0" encoding="UTF-8" standalone="no"?>
<!DOCTYPE svg PUBLIC "-//W3C//DTD SVG 1.1//EN" "http://www.w3.org/Graphics/SVG/1.1/DTD/svg11.dtd">
<svg width="100%" height="100%" viewBox="0 0 512 512" version="1.1" xmlns="http://www.w3.org/2000/svg" xmlns:xlink="http://www.w3.org/1999/xlink" xml:space="preserve" xmlns:serif="http://www.serif.com/" style="fill-rule:evenodd;clip-rule:evenodd;stroke-linejoin:round;stroke-miterlimit:2;">
    <g transform="matrix(1,0,0,1,-1716.37,0)">
        <g id="final" transform="matrix(1,0,0,1,1716.37,0)">
            <rect x="0" y="0" width="512" height="512" style="fill:none;"/>
            <rect x="0" y="0" width="512" height="512" style="fill-rule:nonzero;"/>
            <g transform="matrix(1,0,0,1,-1716.37,0)">
                <path d="M1965.51,315.213C1960.47,377.448 1961.78,428.381 1959.18,490.653C1959.18,490.653 1942.29,492.784 1927.81,489.16C1925.45,435.348 1928.15,368.458 1927.3,304.75C1926.57,250.246 1928.05,217.105 1925.98,170.445C1925.98,170.445 1917.14,183.454 1910.61,228.571C1904.5,270.787 1907.35,305.807 1907.35,305.807L1874.57,299.774C1876.82,220.229 1886.81,163.171 1900.68,144.743C1914.56,126.315 1937.35,118.226 1937.35,118.226C1937.35,118.226 1948.28,134.404 1972.37,134.404C1996.46,134.404 2007.39,118.226 2007.39,118.226C2007.39,118.226 2030.17,126.315 2044.05,144.743C2057.92,163.171 2067.92,220.229 2070.17,299.774L2037.39,305.807C2037.39,305.807 2040.24,270.787 2034.13,228.571C2027.6,183.454 2018.75,170.445 2018.75,170.445C2016.69,217.105 2018.17,250.246 2017.44,304.75C2016.59,368.458 2019.28,435.348 2016.92,489.16C2002.45,492.784 1985.56,490.653 1985.56,490.653C1982.96,428.381 1984.27,377.448 1979.23,315.213L1965.51,315.213ZM1972.37,25.85C1992.98,25.85 2009.72,46.236 2009.72,71.346C2009.72,96.456 1992.98,116.842 1972.37,116.842C1951.75,116.842 1935.01,96.456 1935.01,71.346C1935.01,46.236 1951.75,25.85 1972.37,25.85Z" style="fill:white;"/>
            </g>
        </g>
    </g>
</svg>
